HIERARCHY
ROOT SpineBase
{
  OFFSET 0.000000 0.000000 0.000000
  CHANNELS 6 Xposition Yposition Zposition Zrotation Xrotation Yrotation
  JOINT SpineMid
  {
    OFFSET -0.000000 35.418435 0.000000
    CHANNELS 3 Zrotation Xrotation Yrotation
    JOINT SpineShoulder
    {
      OFFSET -0.051331 26.075542 -0.820754
      CHANNELS 3 Zrotation Xrotation Yrotation
      JOINT Neck
      {
        OFFSET -0.038327 8.587214 -0.591134
        CHANNELS 3 Zrotation Xrotation Yrotation
        JOINT Head
        {
          OFFSET -1.117768 11.034038 1.172697
          CHANNELS 3 Zrotation Xrotation Yrotation
          End Site
          {
            OFFSET 0 0 0
          }
        }
      }
      JOINT ShoulderLeft
      {
        OFFSET -11.696047 -7.576390 -11.664955
        CHANNELS 3 Zrotation Xrotation Yrotation
        JOINT ElbowLeft
        {
          OFFSET -6.683594 -25.293625 1.722823
          CHANNELS 3 Zrotation Xrotation Yrotation
          JOINT WristLeft
          {
            OFFSET -0.451356 -19.219350 12.434909
            CHANNELS 3 Zrotation Xrotation Yrotation
            JOINT HandLeft
            {
              OFFSET 1.074982 -6.193996 -5.112837
              CHANNELS 3 Zrotation Xrotation Yrotation
              JOINT HandTipLeft
              {
                OFFSET -1.935568 -5.829607 1.874988
                CHANNELS 3 Zrotation Xrotation Yrotation
                End Site
                {
                  OFFSET 0 0 0
                }
              }
              JOINT ThumbLeft
              {
                OFFSET 1.230523 0.198485 -5.047243
                CHANNELS 3 Zrotation Xrotation Yrotation
                End Site
                {
                  OFFSET 0 0 0
                }
              }
            }
          }
        }
      }
      JOINT ShoulderRight
      {
        OFFSET 8.711384 -5.209384 -4.275891
        CHANNELS 3 Zrotation Xrotation Yrotation
        JOINT ElbowRight
        {
          OFFSET -16.396737 -16.664378 -10.187359
          CHANNELS 3 Zrotation Xrotation Yrotation
          JOINT WristRight
          {
            OFFSET -13.968251 -18.674756 3.326390
            CHANNELS 3 Zrotation Xrotation Yrotation
            JOINT HandRight
            {
              OFFSET 4.144956 -4.257058 5.469424
              CHANNELS 3 Zrotation Xrotation Yrotation
              JOINT HandTipRight
              {
                OFFSET 0.099919 -6.782437 2.723320
                CHANNELS 3 Zrotation Xrotation Yrotation
                End Site
                {
                  OFFSET 0 0 0
                }
              }
              JOINT ThumbRight
              {
                OFFSET -2.813215 1.407478 -0.300453
                CHANNELS 3 Zrotation Xrotation Yrotation
                End Site
                {
                  OFFSET 0 0 0
                }
              }
            }
          }
        }
      }
    }
  }
  JOINT HipLeft
  {
    OFFSET -7.404520 0.673036 -5.402156
    CHANNELS 3 Zrotation Xrotation Yrotation
    JOINT KneeLeft
    {
      OFFSET 2.350941 -31.027801 2.348972
      CHANNELS 3 Zrotation Xrotation Yrotation
      JOINT AnkleLeft
      {
        OFFSET 0.493027 -34.047932 -3.371854
        CHANNELS 3 Zrotation Xrotation Yrotation
        JOINT FootLeft
        {
          OFFSET 3.336792 -3.062246 -13.019658
          CHANNELS 3 Zrotation Xrotation Yrotation
          End Site
          {
            OFFSET 0 0 0
          }
        }
      }
    }
  }
  JOINT HipRight
  {
    OFFSET 6.037198 0.755093 -1.147455
    CHANNELS 3 Zrotation Xrotation Yrotation
    JOINT KneeRight
    {
      OFFSET 4.660351 -30.225081 3.595539
      CHANNELS 3 Zrotation Xrotation Yrotation
      JOINT AnkleRight
      {
        OFFSET 3.054723 -33.991512 -0.167038
        CHANNELS 3 Zrotation Xrotation Yrotation
        JOINT FootRight
        {
          OFFSET 2.680112 -2.048071 -9.766427
          CHANNELS 3 Zrotation Xrotation Yrotation
          End Site
          {
            OFFSET 0 0 0
          }
        }
      }
    }
  }
}
MOTION
Frames: 5
Frame Time: 0.033333
41.819260 76.684583 258.991505 1.966191 0.079793 -19.461183 0.017210 0.199707 19.521727 0.152889 0.036478 0.087564 -3.649488 1.343944 0.174337 0.000000 0.000000 0.000000 0.465860 0.185717 -0.102488 -0.731021 -0.770674 1.214707 1.736008 0.535255 -4.229842 0.159963 8.840760 0.924167 0.000000 0.000000 0.000000 0.000000 0.000000 0.000000 11.342370 -9.652439 2.295152 -31.930451 19.539488 -5.492872 11.906621 -1.203447 9.857680 14.214000 -5.771994 5.420705 0.000000 0.000000 0.000000 0.000000 0.000000 0.000000 -5.159322 1.328335 19.510914 8.310586 -9.381296 -0.013943 -5.883001 6.279630 0.992462 0.000000 0.000000 0.000000 7.004451 -5.277223 19.605990 -5.430406 5.955585 0.455298 -2.138534 -0.153689 1.959357 0.000000 0.000000 0.000000
41.894212 76.662461 259.082843 2.000887 0.137936 -19.566250 0.056730 0.215661 19.628250 0.189671 0.042576 0.093202 -3.196165 1.497322 0.121848 0.000000 0.000000 0.000000 0.559442 0.274443 -0.139660 -0.714157 -0.658493 1.380957 2.077705 -0.213954 -4.908992 -0.208111 11.868280 0.602867 0.000000 0.000000 0.000000 0.000000 0.000000 0.000000 22.468710 -16.153983 5.277957 -53.798223 29.080681 -1.019696 15.165354 -0.697525 11.917997 12.321610 -6.586230 5.341238 0.000000 0.000000 0.000000 0.000000 0.000000 0.000000 -5.172534 1.346817 19.621515 8.203771 -9.430650 -0.015444 -5.809275 6.241547 0.978684 0.000000 0.000000 0.000000 6.927919 -5.087380 19.736492 -5.292762 5.702541 0.389665 -2.265822 -0.124981 1.904162 0.000000 0.000000 0.000000
41.978236 76.633196 259.153136 2.101581 0.185380 -19.576189 0.099451 0.253923 19.641641 0.248699 0.050192 0.103296 -2.434493 1.790287 0.028658 0.000000 0.000000 0.000000 0.722308 0.420445 -0.192520 -0.624143 -0.727864 1.717153 0.897342 0.051194 -4.549060 0.022441 11.624404 -0.262807 0.000000 0.000000 0.000000 0.000000 0.000000 0.000000 34.046912 -21.788504 9.439066 -77.160553 34.798210 7.367030 11.083614 2.343251 8.190254 16.808062 -4.412762 11.882189 0.000000 0.000000 0.000000 0.000000 0.000000 0.000000 -5.833997 1.470273 19.625733 9.100793 -10.050369 0.071241 -6.216525 6.474584 1.056940 0.000000 0.000000 0.000000 6.732966 -4.972775 19.763088 -5.101488 5.438439 0.332061 -2.393058 -0.045046 1.883998 0.000000 0.000000 0.000000
42.048172 76.572831 259.196506 2.238684 0.223117 -19.355108 0.149821 0.308123 19.425169 0.330217 0.066891 0.116671 -1.714950 2.022348 -0.081362 0.000000 0.000000 0.000000 0.811580 0.654144 -0.281190 -0.361456 -0.883249 2.196166 -0.355206 0.264237 -4.387401 1.253502 11.730479 -0.884200 0.000000 0.000000 0.000000 0.000000 0.000000 0.000000 44.015884 -25.779787 14.156327 -97.092042 36.985778 15.882158 -2.748873 10.481800 -4.204001 26.484627 -3.079514 27.918473 0.000000 0.000000 0.000000 0.000000 0.000000 0.000000 -5.590263 1.534713 19.427699 8.424148 -9.962395 0.021493 -5.920795 6.387470 1.005303 0.000000 0.000000 0.000000 6.580309 -4.986575 19.559694 -5.031248 5.308905 0.302208 -2.475096 0.031935 1.938068 0.000000 0.000000 0.000000
42.130702 76.511144 259.229078 2.430863 0.252412 -19.042822 0.178777 0.394238 19.117860 0.411837 0.102830 0.131453 -0.637369 2.253818 -0.241209 0.000000 0.000000 0.000000 1.173445 0.768533 -0.330455 -0.351033 -1.058263 2.680812 -2.404967 0.698213 -3.652009 2.242300 9.427416 -1.494293 0.000000 0.000000 0.000000 0.000000 0.000000 0.000000 47.808145 -27.382125 17.181186 -107.617403 37.410023 20.481677 -21.819608 27.810254 -14.749252 45.545776 -6.477380 47.473832 0.000000 0.000000 0.000000 0.000000 0.000000 0.000000 -4.754435 1.501963 19.153316 6.636966 -9.320865 -0.115470 -5.100392 6.049078 0.858826 0.000000 0.000000 0.000000 6.362661 -5.077664 19.259238 -4.997045 5.217950 0.288722 -2.498585 0.131018 1.990068 0.000000 0.000000 0.000000
